<svg width="20" height="20" viewBox="0 0 20 20" fill="none" xmlns="http://www.w3.org/2000/svg">
<path d="M7.5 1.25C5.09063 1.25 3.125 3.21563 3.125 5.625C3.125 7.13125 3.89375 8.46875 5.05875 9.25813C2.82938 10.2144 1.25 12.4269 1.25 15H2.5C2.5 12.2312 4.73125 10 7.5 10C8.35938 10 9.16 10.225 9.86312 10.6056C9.1431 11.4954 8.75019 12.6054 8.75 13.75C8.75 16.5037 10.9963 18.75 13.75 18.75C16.5037 18.75 18.75 16.5037 18.75 13.75C18.75 10.9963 16.5037 8.75 13.75 8.75C12.6967 8.75074 11.6707 9.08578 10.82 9.70687C10.5394 9.53415 10.2456 9.38389 9.94125 9.2575C10.536 8.85627 11.0233 8.31531 11.3604 7.68202C11.6975 7.04873 11.8742 6.34243 11.875 5.625C11.875 3.21563 9.90938 1.25 7.5 1.25ZM7.5 2.5C9.23313 2.5 10.625 3.89188 10.625 5.625C10.625 7.35813 9.23313 8.75 7.5 8.75C5.76687 8.75 4.375 7.35813 4.375 5.625C4.375 3.89188 5.76687 2.5 7.5 2.5ZM13.75 10C15.8275 10 17.5 11.6725 17.5 13.75C17.5 15.8275 15.8275 17.5 13.75 17.5C11.6725 17.5 10 15.8275 10 13.75C10 11.6725 11.6725 10 13.75 10ZM15.8006 12.0506L13.75 14.1019L12.3244 12.6756L11.4256 13.5744L13.3006 15.4494L13.75 15.8787L14.1994 15.4494L16.6994 12.9494L15.8006 12.0506Z" fill="white"/>
</svg>
