<svg width="24" height="24" viewBox="0 0 24 24" fill="none" xmlns="http://www.w3.org/2000/svg">
<path d="M5.3998 6.9C5.3998 6.18392 5.68427 5.49716 6.19062 4.99081C6.69697 4.48446 7.38372 4.2 8.0998 4.2C8.81589 4.2 9.50265 4.48446 10.009 4.99081C10.5153 5.49716 10.7998 6.18392 10.7998 6.9C10.7998 7.61608 10.5153 8.30284 10.009 8.80919C9.50265 9.31554 8.81589 9.6 8.0998 9.6C7.38372 9.6 6.69697 9.31554 6.19062 8.80919C5.68427 8.30284 5.3998 7.61608 5.3998 6.9ZM8.0998 3C7.06546 3 6.07348 3.41089 5.34209 4.14228C4.6107 4.87368 4.1998 5.86566 4.1998 6.9C4.1998 7.93434 4.6107 8.92632 5.34209 9.65772C6.07348 10.3891 7.06546 10.8 8.0998 10.8C9.13415 10.8 10.1261 10.3891 10.8575 9.65772C11.5889 8.92632 11.9998 7.93434 11.9998 6.9C11.9998 5.86566 11.5889 4.87368 10.8575 4.14228C10.1261 3.41089 9.13415 3 8.0998 3ZM1.7998 14.4C1.7998 13.7635 2.05266 13.153 2.50275 12.7029C2.95284 12.2529 3.56329 12 4.1998 12H11.9998C12.4177 11.9997 12.8285 12.1084 13.1914 12.3156C12.8586 12.5924 12.5554 12.8984 12.2818 13.2336C12.1895 13.2113 12.0948 13.2 11.9998 13.2H4.1998C3.88155 13.2 3.57632 13.3264 3.35128 13.5515C3.12623 13.7765 2.9998 14.0817 2.9998 14.4V14.4936L3.0082 14.5932C3.07332 15.1684 3.27852 15.7189 3.6058 16.1964C4.1902 17.0412 5.4154 18 8.0998 18C9.24461 18 10.1242 17.826 10.8022 17.5596C10.8126 17.9796 10.8606 18.3876 10.9462 18.7836C10.171 19.044 9.23381 19.2 8.0998 19.2C5.0842 19.2 3.4594 18.096 2.6182 16.8792C2.17528 16.2339 1.89906 15.4889 1.8142 14.7108C1.80736 14.641 1.80256 14.5709 1.7998 14.5008V14.4ZM15.5998 7.8C15.5998 7.32261 15.7894 6.86477 16.127 6.52721C16.4646 6.18964 16.9224 6 17.3998 6C17.8772 6 18.335 6.18964 18.6726 6.52721C19.0102 6.86477 19.1998 7.32261 19.1998 7.8C19.1998 8.27739 19.0102 8.73523 18.6726 9.07279C18.335 9.41036 17.8772 9.6 17.3998 9.6C16.9224 9.6 16.4646 9.41036 16.127 9.07279C15.7894 8.73523 15.5998 8.27739 15.5998 7.8ZM17.3998 4.8C16.6042 4.8 15.8411 5.11607 15.2785 5.67868C14.7159 6.24129 14.3998 7.00435 14.3998 7.8C14.3998 8.59565 14.7159 9.35871 15.2785 9.92132C15.8411 10.4839 16.6042 10.8 17.3998 10.8C18.1955 10.8 18.9585 10.4839 19.5211 9.92132C20.0837 9.35871 20.3998 8.59565 20.3998 7.8C20.3998 7.00435 20.0837 6.24129 19.5211 5.67868C18.9585 5.11607 18.1955 4.8 17.3998 4.8ZM14.4778 13.7304C14.5642 14.0384 14.5882 14.3605 14.5484 14.6778C14.5085 14.9952 14.4056 15.3014 14.2458 15.5784C14.0859 15.8555 13.8723 16.0977 13.6174 16.291C13.3626 16.4843 13.0717 16.6247 12.7618 16.704L12.2074 16.8456C12.1673 17.2512 12.1714 17.66 12.2194 18.0648L12.6394 18.1644C12.9576 18.2396 13.257 18.3791 13.5193 18.5742C13.7817 18.7693 14.0014 19.0159 14.165 19.299C14.3286 19.582 14.4326 19.8955 14.4707 20.2202C14.5088 20.5449 14.4802 20.874 14.3866 21.1872L14.2342 21.6936C14.5446 21.9392 14.8786 22.1464 15.2362 22.3152L15.6262 21.9024C15.8507 21.6647 16.1215 21.4753 16.4218 21.346C16.7221 21.2166 17.0457 21.15 17.3727 21.1503C17.6997 21.1505 18.0232 21.2175 18.3234 21.3473C18.6235 21.477 18.894 21.6668 19.1182 21.9048L19.5226 22.3344C19.8746 22.172 20.2034 21.9728 20.509 21.7368L20.3218 21.0696C20.2352 20.7616 20.2111 20.4393 20.2508 20.1218C20.2906 19.8043 20.3934 19.498 20.5533 19.2208C20.7132 18.9436 20.9269 18.7012 21.1818 18.5079C21.4368 18.3145 21.7278 18.1741 22.0378 18.0948L22.5898 17.9544C22.63 17.5484 22.6259 17.1392 22.5778 16.734L22.1602 16.6356C21.8419 16.5604 21.5424 16.4209 21.2799 16.2257C21.0175 16.0305 20.7977 15.7838 20.6341 15.5006C20.4705 15.2174 20.3665 14.9038 20.3284 14.5789C20.2904 14.2541 20.3192 13.9249 20.413 13.6116L20.5642 13.1064C20.2551 12.8612 19.9189 12.6522 19.5622 12.4836L19.1722 12.8964C18.9478 13.1342 18.6771 13.3237 18.3768 13.4531C18.0765 13.5825 17.7529 13.6493 17.4259 13.6491C17.0989 13.649 16.7754 13.5821 16.4752 13.4524C16.175 13.3228 15.9045 13.1332 15.6802 12.8952L15.2758 12.4656C14.9262 12.627 14.5957 12.8271 14.2906 13.062L14.4778 13.7304ZM17.3986 18.6C17.0803 18.6 16.7751 18.4736 16.5501 18.2485C16.325 18.0235 16.1986 17.7183 16.1986 17.4C16.1986 17.0817 16.325 16.7765 16.5501 16.5515C16.7751 16.3264 17.0803 16.2 17.3986 16.2C17.7169 16.2 18.0221 16.3264 18.2471 16.5515C18.4722 16.7765 18.5986 17.0817 18.5986 17.4C18.5986 17.7183 18.4722 18.0235 18.2471 18.2485C18.0221 18.4736 17.7169 18.6 17.3986 18.6Z" fill="white"/>
</svg>
