
<svg width="24" height="24"  viewBox="0 0 24 24"  fill="none" xmlns="http://www.w3.org/2000/svg">
<path d="M8.0998 11.3999C8.3385 11.3999 8.56742 11.3051 8.7362 11.1363C8.90498 10.9675 8.9998 10.7386 8.9998 10.4999C8.9998 10.2612 8.90498 10.0323 8.7362 9.86351C8.56742 9.69472 8.3385 9.5999 8.0998 9.5999C7.86111 9.5999 7.63219 9.69472 7.46341 9.86351C7.29463 10.0323 7.1998 10.2612 7.1998 10.4999C7.1998 10.7386 7.29463 10.9675 7.46341 11.1363C7.63219 11.3051 7.86111 11.3999 8.0998 11.3999ZM11.6998 7.7999C11.9385 7.7999 12.1674 7.70508 12.3362 7.5363C12.505 7.36752 12.5998 7.1386 12.5998 6.8999C12.5998 6.66121 12.505 6.43229 12.3362 6.26351C12.1674 6.09472 11.9385 5.9999 11.6998 5.9999C11.4611 5.9999 11.2322 6.09472 11.0634 6.26351C10.8946 6.43229 10.7998 6.66121 10.7998 6.8999C10.7998 7.1386 10.8946 7.36752 11.0634 7.5363C11.2322 7.70508 11.4611 7.7999 11.6998 7.7999ZM4.7998 20.9999C4.7998 21.159 4.86302 21.3116 4.97554 21.4242C5.08806 21.5367 5.24067 21.5999 5.3998 21.5999H11.155C10.9833 21.2197 10.8727 20.8147 10.8274 20.3999H5.9998V4.1999C5.9998 4.04077 6.06302 3.88816 6.17554 3.77564C6.28806 3.66312 6.44067 3.5999 6.5998 3.5999H13.7998C13.9589 3.5999 14.1115 3.66312 14.2241 3.77564C14.3366 3.88816 14.3998 4.04077 14.3998 4.1999V10.1999C14.3998 10.359 14.463 10.5116 14.5755 10.6242C14.6881 10.7367 14.8407 10.7999 14.9998 10.7999H17.3998C17.5589 10.7999 17.7115 10.8631 17.8241 10.9756C17.9366 11.0882 17.9998 11.2408 17.9998 11.3999V12.4355C18.2398 12.6875 18.4378 12.9791 18.5878 13.2983C18.7718 13.1319 18.9758 12.9927 19.1998 12.8807V11.3999C19.1998 10.9225 19.0102 10.4647 18.6726 10.1271C18.335 9.78954 17.8772 9.5999 17.3998 9.5999H15.5998V4.1999C15.5998 3.72251 15.4102 3.26468 15.0726 2.92711C14.735 2.58954 14.2772 2.3999 13.7998 2.3999H6.5998C6.12242 2.3999 5.66458 2.58954 5.32701 2.92711C4.98945 3.26468 4.7998 3.72251 4.7998 4.1999V20.9999ZM8.0998 14.9999C8.21799 14.9999 8.33503 14.9766 8.44422 14.9314C8.55341 14.8862 8.65263 14.8199 8.7362 14.7363C8.81977 14.6527 8.88607 14.5535 8.9313 14.4443C8.97653 14.3351 8.9998 14.2181 8.9998 14.0999C8.9998 13.9817 8.97653 13.8647 8.9313 13.7555C8.88607 13.6463 8.81977 13.5471 8.7362 13.4635C8.65263 13.3799 8.55341 13.3136 8.44422 13.2684C8.33503 13.2232 8.21799 13.1999 8.0998 13.1999C7.86111 13.1999 7.63219 13.2947 7.46341 13.4635C7.29463 13.6323 7.1998 13.8612 7.1998 14.0999C7.1998 14.3386 7.29463 14.5675 7.46341 14.7363C7.63219 14.9051 7.86111 14.9999 8.0998 14.9999ZM12.5998 10.4999C12.5998 10.7386 12.505 10.9675 12.3362 11.1363C12.1674 11.3051 11.9385 11.3999 11.6998 11.3999C11.4611 11.3999 11.2322 11.3051 11.0634 11.1363C10.8946 10.9675 10.7998 10.7386 10.7998 10.4999C10.7998 10.2612 10.8946 10.0323 11.0634 9.86351C11.2322 9.69472 11.4611 9.5999 11.6998 9.5999C11.9385 9.5999 12.1674 9.69472 12.3362 9.86351C12.505 10.0323 12.5998 10.2612 12.5998 10.4999ZM8.0998 7.7999C8.3385 7.7999 8.56742 7.70508 8.7362 7.5363C8.90498 7.36752 8.9998 7.1386 8.9998 6.8999C8.9998 6.66121 8.90498 6.43229 8.7362 6.26351C8.56742 6.09472 8.3385 5.9999 8.0998 5.9999C7.86111 5.9999 7.63219 6.09472 7.46341 6.26351C7.29463 6.43229 7.1998 6.66121 7.1998 6.8999C7.1998 7.1386 7.29463 7.36752 7.46341 7.5363C7.63219 7.70508 7.86111 7.7999 8.0998 7.7999ZM17.6998 14.6999C17.6998 15.2569 17.4786 15.791 17.0847 16.1848C16.6909 16.5787 16.1568 16.7999 15.5998 16.7999C15.0429 16.7999 14.5087 16.5787 14.1149 16.1848C13.7211 15.791 13.4998 15.2569 13.4998 14.6999C13.4998 14.1429 13.7211 13.6088 14.1149 13.215C14.5087 12.8212 15.0429 12.5999 15.5998 12.5999C16.1568 12.5999 16.6909 12.8212 17.0847 13.215C17.4786 13.6088 17.6998 14.1429 17.6998 14.6999ZM21.8998 15.2999C21.8998 15.6977 21.7418 16.0793 21.4605 16.3606C21.1792 16.6419 20.7976 16.7999 20.3998 16.7999C20.002 16.7999 19.6204 16.6419 19.3391 16.3606C19.0578 16.0793 18.8998 15.6977 18.8998 15.2999C18.8998 14.9021 19.0578 14.5205 19.3391 14.2392C19.6204 13.9579 20.002 13.7999 20.3998 13.7999C20.7976 13.7999 21.1792 13.9579 21.4605 14.2392C21.7418 14.5205 21.8998 14.9021 21.8998 15.2999ZM19.1998 19.9199C19.1998 21.3395 18.2398 22.7999 15.5998 22.7999C12.9598 22.7999 11.9998 21.3407 11.9998 19.9199C11.9998 19.4107 12.2021 18.9223 12.5622 18.5623C12.9222 18.2022 13.4106 17.9999 13.9198 17.9999H17.2798C17.789 17.9999 18.2774 18.2022 18.6375 18.5623C18.9975 18.9223 19.1998 19.4107 19.1998 19.9199ZM20.0446 21.5999H20.0998C22.0798 21.5999 22.7998 20.5055 22.7998 19.4399C22.7998 19.058 22.6481 18.6917 22.378 18.4217C22.108 18.1516 21.7417 17.9999 21.3598 17.9999H19.7398C20.1538 18.5291 20.3998 19.1963 20.3998 19.9199C20.4019 20.4988 20.2808 21.0714 20.0446 21.5999Z" 
fill="white"  />
</svg>

