<svg width="306" height="797" viewBox="0 0 306 797" fill="none" xmlns="http://www.w3.org/2000/svg">
<path d="M-0.36204 126.041L16.8396 107.718C39.1313 83.9731 71.3373 69.7181 106.615 67.9818L133.837 66.6419L161.059 65.3021C196.337 63.5657 228.543 49.3107 250.834 25.5657L268.036 7.2426" stroke="white" stroke-opacity="0.02" stroke-width="2.46923" stroke-linecap="round" stroke-linejoin="round"/>
<path d="M-5.55149 117.246L11.6502 98.9228C33.9419 75.1777 66.1478 60.9227 101.425 59.1864L128.648 57.8465L155.87 56.5067C191.147 54.7703 223.353 40.5153 245.645 16.7703L262.847 -1.55281" stroke="white" stroke-opacity="0.02" stroke-width="2.46923" stroke-linecap="round" stroke-linejoin="round"/>
<path d="M-10.7409 108.451L6.4607 90.1279C28.7524 66.3828 60.9584 52.1278 96.2359 50.3915L123.458 49.0516L150.68 47.7118C185.958 45.9754 218.164 31.7204 240.456 7.97535L257.657 -10.3477" stroke="white" stroke-opacity="0.02" stroke-width="2.46923" stroke-linecap="round" stroke-linejoin="round"/>
<path d="M4.82692 134.836L22.0286 116.513C44.3203 92.7681 76.5262 78.5131 111.804 76.7767L139.026 75.4369L166.248 74.097C201.526 72.3607 233.732 58.1057 256.023 34.3606L273.225 16.0375" stroke="white" stroke-opacity="0.02" stroke-width="2.46923" stroke-linecap="round" stroke-linejoin="round"/>
<path d="M10.0164 143.631L27.218 125.308C49.5098 101.563 81.7157 87.3075 116.993 85.5712L144.215 84.2313L171.438 82.8914C206.715 81.1551 238.921 66.9001 261.213 43.155L278.415 24.832" stroke="white" stroke-opacity="0.02" stroke-width="2.46923" stroke-linecap="round" stroke-linejoin="round"/>
<path d="M15.2058 152.426L32.4075 134.102C54.6992 110.357 86.9051 96.1024 122.183 94.3661L149.405 93.0262L176.627 91.6864C211.905 89.95 244.111 75.695 266.402 51.95L283.604 33.6269" stroke="white" stroke-opacity="0.02" stroke-width="2.46923" stroke-linecap="round" stroke-linejoin="round"/>
<path d="M-12.7319 168.849L17.0001 164.976C50.2594 160.643 83.2111 168.431 109.32 186.795L132.66 203.211L155.999 219.627C182.108 237.991 215.06 245.779 248.319 241.447L278.051 237.573" stroke="white" stroke-opacity="0.02" stroke-width="2.46923" stroke-linecap="round" stroke-linejoin="round"/>
<path d="M-9.72998 159.32L20.002 155.447C53.2613 151.115 86.2131 158.903 112.322 177.267L135.662 193.683L159.001 210.099C185.11 228.463 218.062 236.251 251.321 231.918L281.053 228.045" stroke="white" stroke-opacity="0.02" stroke-width="2.46923" stroke-linecap="round" stroke-linejoin="round"/>
<path d="M-6.72803 149.792L23.004 145.919C56.2633 141.586 89.215 149.374 115.324 167.738L138.664 184.154L162.003 200.57C188.112 218.934 221.064 226.722 254.323 222.389L284.055 218.516" stroke="white" stroke-opacity="0.02" stroke-width="2.46923" stroke-linecap="round" stroke-linejoin="round"/>
<path d="M-15.7344 178.377L13.9976 174.504C47.257 170.171 80.2087 177.959 106.317 196.323L129.657 212.739L152.997 229.156C179.106 247.519 212.057 255.307 245.317 250.975L275.049 247.102" stroke="white" stroke-opacity="0.02" stroke-width="2.46923" stroke-linecap="round" stroke-linejoin="round"/>
<path d="M-18.7358 187.906L10.9962 184.033C44.2555 179.7 77.2072 187.488 103.316 205.852L126.656 222.268L149.995 238.684C176.104 257.048 209.056 264.836 242.315 260.504L272.047 256.631" stroke="white" stroke-opacity="0.02" stroke-width="2.46923" stroke-linecap="round" stroke-linejoin="round"/>
<path d="M-21.7378 197.434L7.9942 193.561C41.2535 189.229 74.2053 197.016 100.314 215.38L123.654 231.797L146.994 248.213C173.102 266.577 206.054 274.365 239.313 270.032L269.045 266.159" stroke="white" stroke-opacity="0.02" stroke-width="2.46923" stroke-linecap="round" stroke-linejoin="round"/>
<path d="M5.90033 395.232L23.5239 376.961C46.0917 353.564 78.3699 339.742 113.537 338.417L140.999 337.382L168.461 336.347C203.628 335.022 235.906 321.2 258.474 297.803L276.097 279.532" stroke="white" stroke-opacity="0.02" stroke-width="2.46923" stroke-linecap="round" stroke-linejoin="round"/>
<path d="M0.846623 386.378L18.4702 368.107C41.038 344.71 73.3162 330.888 108.483 329.563L135.945 328.528L163.407 327.493C198.574 326.168 230.852 312.346 253.42 288.949L271.044 270.678" stroke="white" stroke-opacity="0.02" stroke-width="2.46923" stroke-linecap="round" stroke-linejoin="round"/>
<path d="M-4.20758 377.524L13.416 359.253C35.9838 335.856 68.262 322.034 103.429 320.709L130.891 319.674L158.353 318.639C193.52 317.314 225.798 303.492 248.366 280.095L265.989 261.824" stroke="white" stroke-opacity="0.02" stroke-width="2.46923" stroke-linecap="round" stroke-linejoin="round"/>
<path d="M10.954 404.086L28.5776 385.815C51.1454 362.418 83.4236 348.596 118.59 347.271L146.053 346.236L173.515 345.201C208.681 343.876 240.96 330.054 263.527 306.657L281.151 288.386" stroke="white" stroke-opacity="0.02" stroke-width="2.46923" stroke-linecap="round" stroke-linejoin="round"/>
<path d="M16.0082 412.939L33.6318 394.668C56.1996 371.271 88.4778 357.449 123.645 356.124L151.107 355.09L178.569 354.055C213.736 352.73 246.014 338.908 268.582 315.511L286.205 297.24" stroke="white" stroke-opacity="0.02" stroke-width="2.46923" stroke-linecap="round" stroke-linejoin="round"/>
<path d="M21.062 421.793L38.6855 403.522C61.2533 380.125 93.5315 366.304 128.698 364.978L156.16 363.944L183.623 362.909C218.789 361.584 251.068 347.762 273.635 324.365L291.259 306.094" stroke="white" stroke-opacity="0.02" stroke-width="2.46923" stroke-linecap="round" stroke-linejoin="round"/>
<path d="M15.035 441.502L40.158 444.941C76.1522 449.868 107.669 467.458 127.722 493.812L141.718 512.206L155.715 530.601C175.768 556.955 207.285 574.545 243.279 579.472L268.402 582.911" stroke="white" stroke-opacity="0.02" stroke-width="2.46923" stroke-linecap="round" stroke-linejoin="round"/>
<path d="M21.2123 433.199L46.3352 436.638C82.3295 441.566 113.847 459.156 133.899 485.51L147.896 503.904L161.892 522.298C181.945 548.652 213.462 566.243 249.456 571.17L274.579 574.609" stroke="white" stroke-opacity="0.02" stroke-width="2.46923" stroke-linecap="round" stroke-linejoin="round"/>
<path d="M27.389 424.897L52.512 428.336C88.5063 433.263 120.023 450.853 140.076 477.207L154.072 495.601L168.069 513.996C188.122 540.35 219.639 557.94 255.633 562.867L280.756 566.306" stroke="white" stroke-opacity="0.02" stroke-width="2.46923" stroke-linecap="round" stroke-linejoin="round"/>
<path d="M8.85779 449.804L33.9807 453.243C69.975 458.17 101.492 475.76 121.545 502.114L135.541 520.509L149.537 538.903C169.59 565.257 201.107 582.847 237.102 587.774L262.225 591.213" stroke="white" stroke-opacity="0.02" stroke-width="2.46923" stroke-linecap="round" stroke-linejoin="round"/>
<path d="M2.68152 458.107L27.8045 461.546C63.7987 466.473 95.3158 484.063 115.369 510.417L129.365 528.811L143.361 547.206C163.414 573.56 194.931 591.15 230.925 596.077L256.048 599.516" stroke="white" stroke-opacity="0.02" stroke-width="2.46923" stroke-linecap="round" stroke-linejoin="round"/>
<path d="M-3.49572 466.409L21.6272 469.848C57.6215 474.775 89.1385 492.365 109.191 518.719L123.188 537.114L137.184 555.508C157.237 581.862 188.754 599.452 224.748 604.379L249.871 607.818" stroke="white" stroke-opacity="0.02" stroke-width="2.46923" stroke-linecap="round" stroke-linejoin="round"/>
<path d="M25.7415 745.817L33.2825 736.357C55.7238 708.205 91.257 690.99 130.698 689.161L143.952 688.546L157.206 687.932C196.647 686.103 232.18 668.888 254.621 640.736L262.162 631.276" stroke="white" stroke-opacity="0.02" stroke-width="2.46923" stroke-linecap="round" stroke-linejoin="round"/>
<path d="M20.1746 737.196L27.7156 727.736C50.1569 699.585 85.6901 682.369 125.131 680.541L138.385 679.926L151.639 679.312C191.08 677.483 226.613 660.268 249.054 632.116L256.595 622.656" stroke="white" stroke-opacity="0.02" stroke-width="2.46923" stroke-linecap="round" stroke-linejoin="round"/>
<path d="M14.6077 728.576L22.1488 719.116C44.59 690.964 80.1232 673.749 119.565 671.921L132.818 671.306L146.072 670.692C185.513 668.863 221.046 651.648 243.488 623.496L251.029 614.036" stroke="white" stroke-opacity="0.02" stroke-width="2.46923" stroke-linecap="round" stroke-linejoin="round"/>
<path d="M31.3089 754.436L38.8499 744.976C61.2911 716.824 96.8244 699.609 136.266 697.78L149.519 697.166L162.773 696.551C202.214 694.723 237.748 677.508 260.189 649.356L267.73 639.896" stroke="white" stroke-opacity="0.02" stroke-width="2.46923" stroke-linecap="round" stroke-linejoin="round"/>
<path d="M36.8758 763.056L44.4168 753.596C66.858 725.444 102.391 708.229 141.833 706.401L155.086 705.786L168.34 705.172C207.781 703.343 243.314 686.128 265.756 657.976L273.297 648.516" stroke="white" stroke-opacity="0.02" stroke-width="2.46923" stroke-linecap="round" stroke-linejoin="round"/>
<path d="M42.4427 771.676L49.9837 762.216C72.4249 734.065 107.958 716.849 147.399 715.021L160.653 714.406L173.907 713.792C213.348 711.963 248.881 694.748 271.323 666.596L278.864 657.136" stroke="white" stroke-opacity="0.02" stroke-width="2.46923" stroke-linecap="round" stroke-linejoin="round"/>
</svg>
