<svg width="31" height="32" viewBox="0 0 31 32" fill="none" xmlns="http://www.w3.org/2000/svg">
<g clip-path="url(#clip0_41_828)">
<path d="M27.6009 24.5244C28.5783 24.5244 29.3537 23.8788 30.0509 22.9755C31.4792 21.1249 29.1348 19.6445 28.2408 18.9221C27.3324 18.1859 26.3172 17.7679 25.289 17.6705M23.9858 14.929C24.8499 14.929 25.6786 14.5679 26.2896 13.9252C26.9006 13.2826 27.2438 12.4109 27.2438 11.502C27.2438 10.5931 26.9006 9.72147 26.2896 9.07879C25.6786 8.43611 24.8499 8.07506 23.9858 8.07506M4.7322 24.5244C3.75479 24.5244 2.97938 23.8788 2.28217 22.9755C0.853852 21.1249 3.19832 19.6445 4.09232 18.9221C5.00066 18.1859 6.01455 17.7665 7.04409 17.6705M7.69569 14.929C6.83161 14.929 6.00292 14.5679 5.39193 13.9252C4.78093 13.2826 4.43767 12.4109 4.43767 11.502C4.43767 10.5931 4.78093 9.72147 5.39193 9.07879C6.00292 8.43611 6.83161 8.07506 7.69569 8.07506M11.0632 20.5642C9.7313 21.4306 6.24001 23.1989 8.36554 25.4113C9.40681 26.4929 10.5628 27.266 12.0184 27.266H20.3173C21.7729 27.266 22.9289 26.4929 23.9675 25.4113C26.0944 23.1989 22.6031 21.4306 21.2712 20.5642C19.7371 19.5691 17.9702 19.042 16.1678 19.042C14.3655 19.042 12.5986 19.5691 11.0645 20.5642M20.7278 10.1312C20.7278 10.7613 20.6098 11.3852 20.3806 11.9672C20.1513 12.5493 19.8154 13.0782 19.3918 13.5237C18.9683 13.9693 18.4654 14.3227 17.912 14.5638C17.3587 14.8049 16.7655 14.929 16.1665 14.929C15.5676 14.929 14.9744 14.8049 14.421 14.5638C13.8676 14.3227 13.3648 13.9693 12.9413 13.5237C12.5177 13.0782 12.1817 12.5493 11.9525 11.9672C11.7233 11.3852 11.6053 10.7613 11.6053 10.1312C11.6053 8.85879 12.0859 7.63847 12.9413 6.73872C13.7967 5.83897 14.9568 5.3335 16.1665 5.3335C17.3763 5.3335 18.5364 5.83897 19.3918 6.73872C20.2472 7.63847 20.7278 8.85879 20.7278 10.1312Z" stroke="black" stroke-opacity="0.5" stroke-width="2.5" stroke-linecap="round" stroke-linejoin="round"/>
</g>
<defs>
<clipPath id="clip0_41_828">
<rect x="0.563477" width="30.4225" height="32" rx="5" fill="white"/>
</clipPath>
</defs>
</svg>
