<svg width="32" height="32" viewBox="0 0 32 32" fill="none" xmlns="http://www.w3.org/2000/svg">
<path d="M14.1345 5.3335C12.6138 5.3335 11.1553 5.93761 10.08 7.01295C9.00462 8.08828 8.4005 9.54674 8.4005 11.0675C8.4005 12.5882 9.00462 14.0467 10.08 15.122C11.1553 16.1974 12.6138 16.8015 14.1345 16.8015C15.6553 16.8015 17.1137 16.1974 18.1891 15.122C19.2644 14.0467 19.8685 12.5882 19.8685 11.0675C19.8685 9.54674 19.2644 8.08828 18.1891 7.01295C17.1137 5.93761 15.6553 5.3335 14.1345 5.3335ZM14.1345 8.2005C14.8949 8.2005 15.6241 8.50255 16.1618 9.04022C16.6994 9.57789 17.0015 10.3071 17.0015 11.0675C17.0015 11.8279 16.6994 12.5571 16.1618 13.0948C15.6241 13.6324 14.8949 13.9345 14.1345 13.9345C13.3741 13.9345 12.6449 13.6324 12.1072 13.0948C11.5696 12.5571 11.2675 11.8279 11.2675 11.0675C11.2675 10.3071 11.5696 9.57789 12.1072 9.04022C12.6449 8.50255 13.3741 8.2005 14.1345 8.2005ZM14.1345 18.235C10.3071 18.235 2.6665 20.1416 2.6665 23.969V28.2695H16.2848C15.924 27.4008 15.6968 26.4825 15.611 25.5458H5.39015V23.969C5.39015 23.0516 9.87701 20.9586 14.1345 20.9586C14.8513 20.9586 15.568 21.0303 16.2848 21.145C16.6526 20.2398 17.1605 19.3981 17.7899 18.6507C16.4424 18.3783 15.1523 18.235 14.1345 18.235ZM24.8858 18.235C21.302 18.235 18.435 21.102 18.435 24.6857C18.435 28.2695 21.302 31.1365 24.8858 31.1365C28.4695 31.1365 31.3365 28.2695 31.3365 24.6857C31.3365 21.102 28.4695 18.235 24.8858 18.235ZM24.8858 20.3852C27.2654 20.3852 29.1863 22.3061 29.1863 24.6857C29.1863 25.4885 28.9712 26.2339 28.5842 26.836L22.7355 20.9873C23.3376 20.6003 24.083 20.3852 24.8858 20.3852ZM21.1873 22.5355L27.036 28.3842C26.4339 28.7712 25.6885 28.9862 24.8858 28.9862C22.5061 28.9862 20.5853 27.0654 20.5853 24.6857C20.5853 23.883 20.8003 23.1376 21.1873 22.5355Z" fill="black" fill-opacity="0.5"/>
</svg>
