<svg width="31" height="32" viewBox="0 0 31 32" fill="none" xmlns="http://www.w3.org/2000/svg">
<g clip-path="url(#clip0_41_835)">
<path d="M30.9779 18.4787L33.0362 20.6592L23.4354 30.8506L18.3336 25.4379L20.392 23.2573L23.4354 26.474L30.9779 18.4787ZM16.1283 5.3335C17.688 5.3335 19.1839 5.98523 20.2868 7.14532C21.3897 8.30542 22.0093 9.87884 22.0093 11.5195C22.0093 13.1601 21.3897 14.7335 20.2868 15.8936C19.1839 17.0537 17.688 17.7054 16.1283 17.7054C14.5685 17.7054 13.0727 17.0537 11.9697 15.8936C10.8668 14.7335 10.2472 13.1601 10.2472 11.5195C10.2472 9.87884 10.8668 8.30542 11.9697 7.14532C13.0727 5.98523 14.5685 5.3335 16.1283 5.3335ZM16.1283 8.42648C15.3484 8.42648 14.6005 8.75235 14.049 9.33239C13.4976 9.91244 13.1877 10.6992 13.1877 11.5195C13.1877 12.3398 13.4976 13.1265 14.049 13.7065C14.6005 14.2866 15.3484 14.6124 16.1283 14.6124C16.9081 14.6124 17.6561 14.2866 18.2075 13.7065C18.759 13.1265 19.0688 12.3398 19.0688 11.5195C19.0688 10.6992 18.759 9.91244 18.2075 9.33239C17.6561 8.75235 16.9081 8.42648 16.1283 8.42648ZM16.1283 19.2519C17.128 19.2519 18.3336 19.3911 19.6716 19.654L17.2163 22.2367L16.1283 22.1903C11.7616 22.1903 7.1597 24.4481 7.1597 25.4379V27.139H16.2753L19.0688 30.0774H4.36621V25.4379C4.36621 21.3242 12.2027 19.2519 16.1283 19.2519Z" fill="black" fill-opacity="0.5"/>
</g>
<defs>
<clipPath id="clip0_41_835">
<rect x="0.563477" width="30.4225" height="32" rx="5" fill="white"/>
</clipPath>
</defs>
</svg>
