<svg width="32" height="32" viewBox="0 0 32 32" fill="none" xmlns="http://www.w3.org/2000/svg">
<path d="M15.3332 5.33317C14.0955 5.33317 12.9085 5.82484 12.0333 6.70001C11.1582 7.57518 10.6665 8.76216 10.6665 9.99984C10.6665 11.2375 11.1582 12.4245 12.0333 13.2997C12.9085 14.1748 14.0955 14.6665 15.3332 14.6665C16.5708 14.6665 17.7578 14.1748 18.633 13.2997C19.5082 12.4245 19.9998 11.2375 19.9998 9.99984C19.9998 8.76216 19.5082 7.57518 18.633 6.70001C17.7578 5.82484 16.5708 5.33317 15.3332 5.33317ZM7.99984 9.99984C7.99984 8.05492 8.77245 6.18965 10.1477 4.81439C11.523 3.43912 13.3883 2.6665 15.3332 2.6665C17.2781 2.6665 19.1434 3.43912 20.5186 4.81439C21.8939 6.18965 22.6665 8.05492 22.6665 9.99984C22.6665 11.9448 21.8939 13.81 20.5186 15.1853C19.1434 16.5606 17.2781 17.3332 15.3332 17.3332C13.3883 17.3332 11.523 16.5606 10.1477 15.1853C8.77245 13.81 7.99984 11.9448 7.99984 9.99984ZM23.9998 19.3332C22.7622 19.3332 21.5752 19.8248 20.7 20.7C19.8248 21.5752 19.3332 22.7622 19.3332 23.9998C19.3332 25.2375 19.8248 26.4245 20.7 27.2997C21.5752 28.1748 22.7622 28.6665 23.9998 28.6665C25.2375 28.6665 26.4245 28.1748 27.2997 27.2997C28.1748 26.4245 28.6665 25.2375 28.6665 23.9998C28.6665 22.7622 28.1748 21.5752 27.2997 20.7C26.4245 19.8248 25.2375 19.3332 23.9998 19.3332ZM16.6665 23.9998C16.6665 23.0368 16.8562 22.0832 17.2247 21.1935C17.5933 20.3038 18.1334 19.4954 18.8144 18.8144C19.4954 18.1334 20.3038 17.5933 21.1935 17.2247C22.0832 16.8562 23.0368 16.6665 23.9998 16.6665C24.9629 16.6665 25.9165 16.8562 26.8062 17.2247C27.6959 17.5933 28.5043 18.1334 29.1853 18.8144C29.8663 19.4954 30.4064 20.3038 30.775 21.1935C31.1435 22.0832 31.3332 23.0368 31.3332 23.9998C31.3332 25.9448 30.5606 27.81 29.1853 29.1853C27.81 30.5606 25.9448 31.3332 23.9998 31.3332C22.0549 31.3332 20.1897 30.5606 18.8144 29.1853C17.4391 27.81 16.6665 25.9448 16.6665 23.9998ZM10.6665 21.3332C9.25202 21.3332 7.89546 21.8951 6.89527 22.8953C5.89507 23.8955 5.33317 25.252 5.33317 26.6665H14.7332V29.3332H2.6665V26.6665C2.6665 24.5448 3.50936 22.5099 5.00965 21.0097C6.50994 19.5094 8.54477 18.6665 10.6665 18.6665H14.6665V21.3332H10.6665ZM25.3332 21.0025V23.4478L27.2185 25.3332L25.3332 27.2185L22.6665 24.5518V21.0025H25.3332Z" fill="black" fill-opacity="0.5"/>
</svg>
