<svg width="250" height="565" viewBox="0 0 250 565" fill="none" xmlns="http://www.w3.org/2000/svg">
<path d="M-14.5591 102.903L-14.4331 111.883C-13.5212 176.894 56.7921 217.098 113.282 184.907L121.4 180.281C174.496 150.025 240.531 188.104 240.94 249.214L241.084 270.586C241.38 314.802 285 345.666 326.795 331.231V331.231" stroke="white" stroke-opacity="0.05" stroke-width="0.653416"/>
<path d="M-17.5383 108.066L-17.4123 117.045C-16.5004 182.056 53.8129 222.26 110.302 190.07L118.421 185.443C171.517 155.187 237.552 193.266 237.961 254.376L238.104 275.748C238.4 319.964 282.021 350.828 323.815 336.393V336.393" stroke="white" stroke-opacity="0.05" stroke-width="0.653416"/>
<path d="M-20.5188 113.228L-20.3928 122.207C-19.4809 187.218 50.8324 227.422 107.322 195.232L115.44 190.606C168.537 160.349 234.571 198.428 234.981 259.539L235.124 280.91C235.42 325.126 279.04 355.99 320.835 341.555V341.555" stroke="white" stroke-opacity="0.05" stroke-width="0.653416"/>
<path d="M-23.4995 118.389L-23.3735 127.368C-22.4616 192.379 47.8517 232.583 104.341 200.393L112.459 195.767C165.556 165.51 231.591 203.589 232 264.7L232.143 286.071C232.439 330.287 276.06 361.151 317.854 346.717V346.717" stroke="white" stroke-opacity="0.05" stroke-width="0.653416"/>
<path d="M-26.48 123.551L-26.354 132.53C-25.4421 197.541 44.8712 237.745 101.361 205.555L109.479 200.929C162.575 170.672 228.61 208.751 229.019 269.862L229.163 291.233C229.459 335.449 273.079 366.313 314.874 351.879V351.879" stroke="white" stroke-opacity="0.05" stroke-width="0.653416"/>
<path d="M-29.4604 128.713L-29.3345 137.692C-28.4225 202.703 41.8908 242.907 98.3803 210.717L106.499 206.091C159.595 175.834 225.63 213.913 226.039 275.024L226.182 296.395C226.478 340.611 270.099 371.475 311.893 357.041V357.041" stroke="white" stroke-opacity="0.05" stroke-width="0.653416"/>
<path d="M-32.4399 133.875L-32.314 142.854C-31.402 207.866 38.9113 248.069 95.4008 215.879L103.519 211.253C156.616 180.996 222.65 219.075 223.059 280.186L223.203 301.557C223.499 345.773 267.119 376.637 308.914 362.203V362.203" stroke="white" stroke-opacity="0.05" stroke-width="0.653416"/>
<path d="M-35.4197 139.037L-35.2937 148.017C-34.3818 213.028 35.9315 253.231 92.4211 221.041L100.539 216.415C153.636 186.159 219.67 224.237 220.08 285.348L220.223 306.72C220.519 350.936 264.14 381.799 305.934 367.365V367.365" stroke="white" stroke-opacity="0.05" stroke-width="0.653416"/>
<path d="M-38.4013 144.199L-38.2754 153.179C-37.3635 218.19 32.9498 258.393 89.4394 226.203L97.5576 221.577C150.654 191.321 216.689 229.4 217.098 290.51L217.241 311.882C217.537 356.098 261.158 386.961 302.952 372.527V372.527" stroke="white" stroke-opacity="0.05" stroke-width="0.653416"/>
<path d="M-41.3808 149.361L-41.2549 158.341C-40.3429 223.352 29.9704 263.556 86.4599 231.365L94.5781 226.739C147.675 196.483 213.709 234.562 214.119 295.672L214.262 317.044C214.558 361.26 258.178 392.124 299.973 377.689V377.689" stroke="white" stroke-opacity="0.05" stroke-width="0.653416"/>
<path d="M-44.3615 154.523L-44.2356 163.502C-43.3237 228.513 26.9896 268.717 83.4792 236.527L91.5974 231.9C144.694 201.644 210.728 239.723 211.138 300.834L211.281 322.205C211.577 366.421 255.198 397.285 296.992 382.85V382.85" stroke="white" stroke-opacity="0.05" stroke-width="0.653416"/>
<path d="M-47.3413 159.685L-47.2153 168.664C-46.3034 233.675 24.0099 273.879 80.4995 241.689L88.6177 237.063C141.714 206.806 207.749 244.885 208.158 305.996L208.301 327.367C208.598 371.583 252.218 402.447 294.013 388.012V388.012" stroke="white" stroke-opacity="0.05" stroke-width="0.653416"/>
<path d="M-50.3213 164.847L-50.1953 173.826C-49.2834 238.837 21.0299 279.041 77.5195 246.851L85.6377 242.225C138.734 211.968 204.769 250.047 205.178 311.158L205.321 332.529C205.618 376.745 249.238 407.609 291.033 393.175V393.175" stroke="white" stroke-opacity="0.05" stroke-width="0.653416"/>
<path d="M-53.3012 170.009L-53.1753 178.988C-52.2634 243.999 18.0499 284.203 74.5395 252.013L82.6577 247.387C135.754 217.13 201.789 255.209 202.198 316.32L202.341 337.691C202.638 381.907 246.258 412.771 288.053 398.337V398.337" stroke="white" stroke-opacity="0.05" stroke-width="0.653416"/>
<path d="M-56.2817 175.171L-56.1558 184.15C-55.2438 249.161 15.0695 289.365 71.559 257.175L79.6773 252.549C132.774 222.292 198.808 260.371 199.218 321.482L199.361 342.853C199.657 387.069 243.277 417.933 285.072 403.499V403.499" stroke="white" stroke-opacity="0.05" stroke-width="0.653416"/>
<path d="M-59.1916 180.211L-59.0657 189.19C-58.1537 254.201 12.1596 294.405 68.6491 262.215L76.7674 257.589C129.864 227.332 195.898 265.411 196.308 326.522L196.451 347.893C196.747 392.109 240.368 422.973 282.162 408.539V408.539" stroke="white" stroke-opacity="0.05" stroke-width="0.653416"/>
<path d="M-62.1018 185.25L-61.9758 194.229C-61.0639 259.241 9.24941 299.444 65.739 267.254L73.8572 262.628C126.954 232.371 192.988 270.45 193.398 331.561L193.541 352.932C193.837 397.148 237.457 428.012 279.252 413.578V413.578" stroke="white" stroke-opacity="0.05" stroke-width="0.653416"/>
<path d="M-65.0117 190.29L-64.8857 199.269C-63.9738 264.281 6.3395 304.484 62.829 272.294L70.9473 267.668C124.044 237.411 190.078 275.49 190.488 336.601L190.631 357.973C190.927 402.189 234.547 433.052 276.342 418.618V418.618" stroke="white" stroke-opacity="0.05" stroke-width="0.653416"/>
<path d="M-67.9206 195.33L-67.7947 204.31C-66.8827 269.321 3.43056 309.524 59.9201 277.334L68.0383 272.708C121.135 242.451 187.169 280.53 187.579 341.641L187.722 363.013C188.018 407.229 231.639 438.092 273.433 423.658V423.658" stroke="white" stroke-opacity="0.05" stroke-width="0.653416"/>
<path d="M-70.8305 200.369L-70.7046 209.349C-69.7927 274.36 0.520648 314.563 57.0102 282.373L65.1284 277.747C118.225 247.491 184.259 285.569 184.669 346.68L184.812 368.052C185.108 412.268 228.729 443.131 270.523 428.697V428.697" stroke="white" stroke-opacity="0.05" stroke-width="0.653416"/>
<path d="M-73.7395 205.409L-73.6135 214.389C-72.7016 279.4 -2.38829 319.603 54.1013 287.413L62.2195 282.787C115.316 252.531 181.351 290.609 181.76 351.72L181.903 373.092C182.199 417.308 225.82 448.171 267.614 433.737V433.737" stroke="white" stroke-opacity="0.05" stroke-width="0.653416"/>
<path d="M-76.6506 210.449L-76.5247 219.429C-75.6127 284.44 -5.29942 324.643 51.1901 292.453L59.3084 287.827C112.405 257.571 178.439 295.65 178.849 356.76L178.992 378.132C179.288 422.348 222.909 453.211 264.703 438.777V438.777" stroke="white" stroke-opacity="0.05" stroke-width="0.653416"/>
<path d="M-79.5588 215.489L-79.4329 224.469C-78.5209 289.48 -8.20762 329.683 48.2819 297.493L56.4002 292.867C109.497 262.611 175.531 300.69 175.941 361.8L176.084 383.172C176.38 427.388 220 458.252 261.795 443.817V443.817" stroke="white" stroke-opacity="0.05" stroke-width="0.653416"/>
<path d="M-82.469 220.528L-82.343 229.508C-81.4311 294.519 -11.1178 334.723 45.3718 302.532L53.49 297.906C106.586 267.65 172.621 305.729 173.03 366.839L173.174 388.211C173.47 432.427 217.09 463.291 258.885 448.856V448.856" stroke="white" stroke-opacity="0.05" stroke-width="0.653416"/>
<path d="M-85.3784 225.569L-85.2524 234.548C-84.3405 299.559 -14.0272 339.763 42.4623 307.572L50.5806 302.946C103.677 272.69 169.712 310.769 170.121 371.879L170.264 393.251C170.56 437.467 214.181 468.331 255.975 453.896V453.896" stroke="white" stroke-opacity="0.05" stroke-width="0.653416"/>
<path d="M-88.2883 230.609L-88.1623 239.588C-87.2504 304.599 -16.9371 344.803 39.5524 312.612L47.6707 307.986C100.767 277.73 166.802 315.809 167.211 376.919L167.354 398.291C167.651 442.507 211.271 473.371 253.065 458.936V458.936" stroke="white" stroke-opacity="0.05" stroke-width="0.653416"/>
<path d="M-91.1977 235.648L-91.0718 244.627C-90.1598 309.638 -19.8465 349.842 36.643 317.652L44.7612 313.025C97.8577 282.769 163.892 320.848 164.302 381.959L164.445 403.33C164.741 447.546 208.361 478.41 250.156 463.975V463.975" stroke="white" stroke-opacity="0.05" stroke-width="0.653416"/>
<path d="M-94.1076 240.688L-93.9817 249.667C-93.0698 314.678 -22.7565 354.882 33.7331 322.692L41.8513 318.065C94.9478 287.809 160.982 325.888 161.392 386.999L161.535 408.37C161.831 452.586 205.452 483.45 247.246 469.015V469.015" stroke="white" stroke-opacity="0.05" stroke-width="0.653416"/>
<path d="M-97.0173 245.728L-96.8914 254.707C-95.9794 319.718 -25.6661 359.922 30.8234 327.732L38.9417 323.106C92.0381 292.849 158.073 330.928 158.482 392.039L158.625 413.41C158.921 457.626 202.542 488.49 244.336 474.055V474.055" stroke="white" stroke-opacity="0.05" stroke-width="0.653416"/>
</svg>
