<svg width="50" height="50" viewBox="0 0 50 50" fill="none" xmlns="http://www.w3.org/2000/svg">
<rect width="50" height="50" rx="25" fill="#004987" fill-opacity="0.05"/>
<g clip-path="url(#clip0_302_15014)">
<path d="M20.8 18.6C21.2774 18.6 21.7353 18.4104 22.0728 18.0728C22.4104 17.7352 22.6 17.2774 22.6 16.8C22.6 16.3226 22.4104 15.8648 22.0728 15.5272C21.7353 15.1896 21.2774 15 20.8 15C20.3226 15 19.8648 15.1896 19.5272 15.5272C19.1897 15.8648 19 16.3226 19 16.8C19 17.2774 19.1897 17.7352 19.5272 18.0728C19.8648 18.4104 20.3226 18.6 20.8 18.6ZM17.6388 22.5188C17.6763 22.5038 17.71 22.4888 17.7475 22.4738L17.1138 24.855C16.9038 25.6462 17.11 26.49 17.665 27.0938L20.3163 29.985L21.1413 33.2888C21.3025 33.93 21.955 34.3238 22.5963 34.1625C23.2375 34.0013 23.6313 33.3488 23.47 32.7075L22.6075 29.2538C22.5363 28.9613 22.39 28.695 22.1875 28.4738L20.3313 26.4487L21.055 23.9925L21.415 24.855C21.58 25.2525 21.8838 25.5787 22.27 25.7738L23.2713 26.2725C23.8638 26.5688 24.5838 26.3287 24.88 25.7362C25.1763 25.1438 24.9363 24.4237 24.3438 24.1275L23.5375 23.7263L22.9638 22.3463C22.3188 20.805 20.8113 19.8 19.1388 19.8C18.2838 19.8 17.44 19.98 16.66 20.325L16.36 20.4563C15.1263 21.0038 14.1813 22.0463 13.7575 23.325L13.66 23.6175C13.45 24.2475 13.7913 24.9262 14.4175 25.1362C15.0438 25.3462 15.7263 25.005 15.9363 24.3788L16.0338 24.0863C16.2475 23.445 16.72 22.9275 17.335 22.6538L17.635 22.5225L17.6388 22.5188ZM16.5138 27.585L15.5763 29.925L13.3525 32.1525C12.8838 32.6213 12.8838 33.3825 13.3525 33.8513C13.8213 34.32 14.5825 34.32 15.0513 33.8513L17.3613 31.5375C17.5338 31.365 17.6688 31.1588 17.7588 30.9338L18.3025 29.5763L16.7763 27.9113C16.6825 27.81 16.5963 27.7013 16.5138 27.5888V27.585ZM33.6475 20.7525C33.1788 20.2838 32.4175 20.2838 31.9488 20.7525C31.48 21.2213 31.48 21.9825 31.9488 22.4513L32.9013 23.4H27.4C26.7363 23.4 26.2 23.9363 26.2 24.6C26.2 25.2638 26.7363 25.8 27.4 25.8H32.9013L31.9488 26.7525C31.48 27.2213 31.48 27.9825 31.9488 28.4513C32.4175 28.92 33.1788 28.92 33.6475 28.4513L36.6475 25.4513C37.1163 24.9825 37.1163 24.2213 36.6475 23.7525L33.6475 20.7525Z" fill="#004987"/>
</g>
<defs>
<clipPath id="clip0_302_15014">
<rect width="24" height="19.2" fill="white" transform="translate(13 15)"/>
</clipPath>
</defs>
</svg>
