<svg width="50" height="50" viewBox="0 0 50 50" fill="none" xmlns="http://www.w3.org/2000/svg">
<rect width="50" height="50" rx="25" fill="#004987" fill-opacity="0.05"/>
<path d="M22 33H19C17.9391 33 16.9217 32.5786 16.1716 31.8284C15.4214 31.0783 15 30.0609 15 29V20C15 18.9391 15.4214 17.9217 16.1716 17.1716C16.9217 16.4214 17.9391 16 19 16H30C31.0609 16 32.0783 16.4214 32.8284 17.1716C33.5786 17.9217 34 18.9391 34 20V23M21 15V17M28 15V17M15 21H34M31.5 28.643L30 30.143" stroke="#004987" stroke-width="2" stroke-linecap="round" stroke-linejoin="round"/>
<path d="M30 35C32.7614 35 35 32.7614 35 30C35 27.2386 32.7614 25 30 25C27.2386 25 25 27.2386 25 30C25 32.7614 27.2386 35 30 35Z" stroke="#004987" stroke-width="2" stroke-linecap="round" stroke-linejoin="round"/>
</svg>
